PathFileType	3	(X/Y/Z)	D:\minhoCalibration\240510\subject3_KPNP\preferred\preferred01.trc
DataRate	CameraRate	NumFrames	NumMarkers	Units	OrigDataRate	OrigDataStartFrame	OrigNumFrames
200.0	200.0	21	10	mm	200.0	220	136	
Frame#	Time	Left_Ankle_Outer1			Left_Ankle_Inner1			Left_Knee_Outer1			Left_Knee_Inner1			Left_Wrist1			Right_Wrist1			Right_Knee_Inner1			Right_Knee_Outer1			Right_Ankle_Inner1			Right_Ankle_Outer1			
		X1	Y1	Z1	X2	Y2	Z2	X3	Y3	Z3	X4	Y4	Z4	X5	Y5	Z5	X6	Y6	Z6	X7	Y7	Z7	X8	Y8	Z8	X9	Y9	Z9	X10	Y10	Z10	
220	1.09	-310.39954	81.038765	-585.47754	-367.05441	89.187332	-585.05249	-233.54352	491.78442	-429.93723	-341.87631	496.67004	-417.32413	-210.56007	852.30493	-586.88892	-541.07294	876.60638	-724.97168	-531.46753	423.38318	-790.13574	-603.20892	496.61679	-850.05182	-408.61172	131.0448	-1051.5685	-481.75943	154.121	-1118.2079
221	1.095	-309.34113	81.17598	-585.16846	-365.93262	89.374657	-584.89722	-232.92191	491.10028	-427.72647	-341.11301	495.85278	-415.33652	-207.32497	854.44238	-584.11279	-541.16931	878.50629	-714.87579	-535.79401	424.59137	-779.11078	-609.59662	498.51132	-837.77826	-412.32166	138.08238	-1047.0348	-485.871	160.9716	-1113.0377
222	1.1	-309.51373	80.583641	-584.37402	-364.8631	89.584785	-584.71368	-232.27205	490.60037	-425.54028	-340.25992	495.23813	-413.74878	-204.11136	856.67126	-581.39795	-540.93939	880.89764	-704.88684	-540.42615	425.93301	-767.30536	-616.03986	500.52155	-824.79956	-415.84171	145.79208	-1041.6343	-490.40369	168.65131	-1107.3762
223	1.105	-307.72418	81.362717	-584.44623	-363.79004	90.099251	-584.79498	-231.80951	490.16974	-423.20941	-339.78329	494.61877	-411.71701	-200.84044	858.92957	-578.7323	-540.99884	883.18268	-694.61041	-545.26709	427.41025	-755.08209	-622.41675	502.71088	-811.19574	-420.50162	153.30133	-1036.0609	-496.15729	175.38428	-1100.416
224	1.11	-307.37885	81.300156	-583.6131	-362.72919	90.693329	-584.59503	-231.12964	489.91205	-420.965	-339.12726	493.84708	-410.30219	-197.4814	861.28931	-576.01996	-540.68542	885.8493	-684.37708	-550.01062	428.75958	-741.85559	-628.47968	504.86224	-796.88898	-425.51456	161.45471	-1029.8644	-501.74188	183.3277	-1093.4172
225	1.115	-306.52936	81.763115	-583.18964	-361.5629	91.232765	-584.39056	-230.59839	489.82086	-418.67487	-338.51083	493.15704	-408.7392	-194.54121	863.38397	-573.09692	-539.7019	888.98004	-674.54047	-555.45221	430.4328	-729.10461	-634.15161	507.04007	-782.15985	-430.81113	169.71642	-1023.0421	-507.66104	192.15111	-1086.1222
226	1.12	-305.47308	82.683434	-582.82147	-360.73703	92.093643	-584.1322	-230.07817	489.88379	-416.28049	-337.84106	492.68857	-407.34741	-191.44495	865.6546	-570.26959	-539.22388	891.93665	-664.37488	-560.45013	432.18695	-714.53229	-639.55304	509.46997	-767.04822	-436.38751	178.34642	-1015.9378	-515.19666	200.86658	-1076.6486
227	1.125	-305.01523	83.182358	-582.005	-359.73996	92.917686	-583.75684	-229.38522	490.05695	-414.04813	-336.98425	492.42435	-405.97479	-187.7323	868.06396	-567.70667	-538.16199	895.03857	-654.9563	-565.68524	434.30966	-699.47705	-644.367	512.06207	-751.09973	-442.32925	187.37881	-1008.5396	-522.64954	209.87714	-1067.9971
228	1.13	-303.60187	84.153725	-581.6413	-358.69302	93.585098	-583.18182	-228.7426	490.32626	-411.76779	-335.95663	492.38095	-404.55719	-185.3419	870.11572	-564.98309	-537.33514	898.74829	-645.11786	-570.83923	436.85074	-684.07959	-648.12292	514.48547	-733.87421	-448.24799	196.96284	-1000.6697	-531.00043	219.13693	-1057.9517
229	1.135	-302.7644	85.109451	-581.0639	-357.72153	94.692535	-582.85547	-227.94791	490.79773	-409.6778	-334.95209	492.71771	-403.24985	-182.31499	872.2558	-562.48883	-535.36365	902.75262	-636.06433	-575.2655	439.62399	-667.08527	-652.11792	517.4873	-717.29858	-454.38986	207.23802	-992.26361	-539.40967	228.64494	-1047.3347
230	1.14	-301.78665	85.934204	-580.33618	-356.53513	95.681419	-582.28168	-227.13496	491.37738	-407.75931	-333.68515	492.95636	-401.81409	-178.94252	874.51361	-560.22363	-534.46198	906.07892	-626.77393	-578.67035	442.76309	-648.86877	-654.8092	520.64972	-702.17273	-460.54572	217.96501	-983.20593	-548.08173	238.00609	-1036.0735
231	1.145	-300.56158	87.067741	-579.72882	-355.77496	96.555237	-581.44635	-226.15366	491.96033	-406.08194	-332.22369	493.68939	-400.28223	-175.70816	876.65417	-557.89136	-532.63336	909.75464	-618.13922	-581.80267	446.29755	-631.31476	-658.95337	524.13989	-682.03101	-467.09814	229.23868	-973.60596	-556.76923	247.59868	-1024.228
232	1.15	-299.20868	88.198853	-579.07788	-354.11444	97.736519	-581.43311	-224.95686	492.64386	-404.68201	-330.74692	494.64371	-398.59634	-172.96924	878.7691	-555.72095	-530.48773	913.78925	-609.7951	-583.87042	449.96094	-613.18842	-662.17957	527.1264	-663.64923	-472.93552	241.67792	-962.88898	-562.86176	262.09915	-1011.9978
233	1.155	-298.0787	89.229866	-578.2937	-352.82019	98.998817	-580.83972	-223.55721	493.42715	-403.59848	-329.08533	495.61865	-397.1554	-169.76375	880.95007	-553.7959	-528.84412	917.44781	-600.90045	-584.52686	453.53427	-595.25525	-664.41663	530.91577	-647.00012	-478.32953	254.83435	-951.54633	-571.96619	268.38715	-999.04138
234	1.16	-296.79248	90.369232	-577.49902	-351.46976	100.53808	-580.22424	-222.05338	494.30988	-402.64041	-326.98816	496.75418	-396.08987	-167.11404	882.87079	-551.91132	-526.37048	921.42841	-592.92084	-585.07568	457.65445	-577.01599	-668.25555	534.14093	-625.42578	-483.69574	268.6412	-939.3927	-578.48425	280.09021	-985.5556
235	1.165	-295.59811	91.834183	-576.83826	-350.27332	101.84261	-579.48291	-220.18684	495.35703	-402.01886	-324.84872	497.90405	-395.11383	-163.82983	885.08783	-550.54193	-524.09583	925.30328	-584.63177	-584.60052	461.89304	-558.88245	-670.76801	539.23828	-605.48737	-489.07962	282.52689	-926.16919	-586.57483	292.04904	-968.6911
236	1.17	-294.28214	93.232544	-576.12421	-349.16199	103.49792	-578.71576	-218.17451	496.47638	-401.59634	-322.57468	499.20468	-394.28915	-160.98434	887.09064	-549.23877	-521.401	929.84637	-576.33789	-583.56702	466.37601	-540.64911	-673.32306	544.06628	-584.19055	-494.32739	296.46771	-911.78851	-591.89172	306.46472	-954.98291
237	1.175	-293.26886	94.634186	-575.39331	-348.09302	105.02545	-577.86292	-215.80954	497.78049	-401.40414	-320.05151	500.54944	-393.71619	-158.25737	889.04401	-548.18622	-519.13904	933.62701	-568.58008	-581.99109	471.35135	-522.49127	-675.13586	549.68823	-563.99402	-499.76669	310.20819	-896.76666	-597.03101	321.64548	-939.88403
238	1.18	-292.33206	96.119057	-574.6748	-347.05045	106.89718	-577.07629	-213.18047	499.22998	-401.51938	-317.57037	502.0733	-393.09998	-154.82256	891.33838	-547.92761	-516.54083	938.54822	-559.78387	-579.96948	476.64722	-504.36407	-676.37665	556.34204	-541.62775	-505.12827	324.03888	-881.02319	-602.73987	336.8132	-922.7218
239	1.185	-291.54099	97.74601	-574.0437	-346.25174	108.81599	-576.25854	-210.11942	500.8157	-401.99197	-315.02142	503.74353	-392.62936	-151.91702	893.47772	-547.87695	-513.935	943.64606	-551.46527	-577.59601	482.52078	-486.30273	-677.01355	563.73749	-519.25116	-510.40143	337.67694	-864.63776	-608.2525	353.10214	-904.46796
240	1.19	-290.62164	99.498589	-573.57629	-345.67993	110.72214	-575.2323	-207.09396	502.40244	-402.66858	-312.08356	505.34045	-392.29752	-149.03275	895.60608	-548.25989	-510.33908	949.29272	-543.10541	-575.00195	488.99902	-468.04562	-676.98431	571.84735	-496.27997	-515.87421	351.32861	-847.89227	-613.06366	370.22305	-887.64062
